<?xml version="1.0" encoding="utf-8"?>
<!-- Svg Vector Icons : http://www.onlinewebfonts.com/icon -->
<!DOCTYPE svg PUBLIC "-//W3C//DTD SVG 1.1//EN" "http://www.w3.org/Graphics/SVG/1.1/DTD/svg11.dtd">
<svg version="1.1" xmlns="http://www.w3.org/2000/svg" xmlns:xlink="http://www.w3.org/1999/xlink" x="0px" y="0px" viewBox="0 0 1000 1000" enable-background="new 0 0 1000 1000" xml:space="preserve">
<metadata> Svg Vector Icons : http://www.onlinewebfonts.com/icon </metadata>
<g><g transform="translate(0.000000,512.000000) scale(0.100000,-0.100000)"><path d="M4540.6,5009.8c-953.3-92.1-1899-481.5-2639.4-1083.8c-218.7-176.5-563.9-525.6-736.6-742.3c-439.3-550.5-799.9-1294.8-949.5-1962.3C121.1,803.2,100,597.9,100,118.4c0-479.5,21.1-684.8,115.1-1102.9c151.5-681,521.7-1436.7,976.4-1994.9c176.5-218.7,525.6-564,742.3-736.6c550.5-439.2,1294.8-799.9,1962.3-949.5c418.2-94,623.4-115.1,1103-115.1s684.8,21.1,1103,115.1c500.6,111.3,1156.6,391.3,1588.2,677.1c746.2,496.8,1319.7,1149,1713,1948.9c239.8,489.1,376,928.4,462.3,1486.6c46,308.8,46,1033.9,0,1342.7c-86.3,558.2-222.5,997.5-462.3,1486.6c-257.1,521.7-542.9,920.7-955.3,1327.4c-404.7,400.9-774.9,663.7-1290.9,916.9c-483.4,237.9-932.2,377.9-1467.4,460.4C5447.9,5017.4,4791.9,5032.8,4540.6,5009.8z M5488.2,4605c702.1-69.1,1452.1-343.4,2042.9-748.1c1087.6-744.3,1785.8-1885.6,1948.9-3180.3c36.5-285.8,36.5-830.6,0-1116.4c-257-2052.5-1870.2-3665.7-3922.7-3922.7c-285.8-36.4-830.6-36.4-1116.4,0C2388.4-4105.4,775.2-2492.2,518.2-439.8c-36.4,285.8-36.4,830.6,0,1116.4c276.2,2205.9,2115.8,3884.3,4337,3955.3C5043.1,4637.6,5242.6,4630,5488.2,4605z"/><path d="M7458.1,3030.2c-24.9-11.5-535.2-550.5-1135.5-1198.9C5244.6,670.8,5229.2,657.4,5177.4,676.6c-30.7,11.5-111.2,21.1-182.2,23c-324.2,0-577.4-255.1-577.4-583.1c0-109.3,11.5-153.4,61.4-255.1c32.6-69.1,88.2-147.7,122.8-176.5c101.7-86.3,251.3-145.8,377.9-147.7l113.2-3.8l410.5-757.7c259-477.6,429.7-771.1,462.3-794.1c78.7-59.5,180.3-48,247.4,28.8c94,103.6,80.6,136.2-366.4,961l-404.7,740.4l69.1,134.3c59.5,117,69,153.5,69,266.6c0,76.7-13.4,161.1-30.7,203.3l-30.7,72.9l1078,1162.4C7189.6,2190,7684.5,2731,7697.9,2754C7791.9,2917,7625,3108.8,7458.1,3030.2z"/></g></g>
</svg>